#!OML:ASF E:\Mandelcareful walks\Project 1\Capture day 1\Session 1\Subject1.ASF
:FULLY-SPECIFIED
:DEGREES
592
root -2.25669 12.5484 -0.645593 183.69 62.9694 161.608
lowerback 48.8457 10.8157 -10.8378
upperback 10.7752 10.3964 -0.321571
thorax -8.67732 5.73086 -0.0519022
lowerneck -32.8753 -7.82213 -8.70994
upperneck 22.6496 -7.11449 1.94599
head 13.4123 -3.57517 0.697087
rclavicle -1.90833e-014 1.82882e-014
rhumerus 47.9355 7.94443 -67.502
rradius 40.2468
rwrist -41.769
rhand -11.6801 -43.71
rfingers 7.12502
rthumb 14.3653 -73.193
lclavicle -1.90833e-014 1.82882e-014
lhumerus -13.9281 -26.6214 73.6232
lradius 59.2477
lwrist 29.3514
lhand -26.3572 -16.6267
lfingers 7.12502
lthumb 0.200768 13.353
rfemur -55.4918 -37.9258 0.496342
rtibia 102.914
rfoot -34.0806 -8.6198
rtoes -35.4729
lfemur -86.0279 18.5278 -26.7419
ltibia 87.3842
lfoot -13.3171 -20.6503
ltoes 5.89306
593
root -2.31535 12.5675 -0.482479 183.326 61.8804 161.49
lowerback 49.712 10.4009 -10.8824
upperback 10.4185 9.7864 -0.0164981
thorax -9.21978 5.4541 0.465527
lowerneck -32.3482 -7.87286 -8.44056
upperneck 22.146 -7.44315 2.14759
head 13.1248 -3.67216 0.683646
rclavicle 6.36111e-014 8.18993e-014
rhumerus 47.4498 9.34466 -66.123
rradius 41.2637
rwrist -41.0089
rhand -12.1413 -43.2674
rfingers 7.12502
rthumb 13.9208 -72.7814
lclavicle 6.36111e-014 8.18993e-014
lhumerus -14.259 -26.8079 73.305
lradius 59.0708
lwrist 29.428
lhand -26.8159 -16.3582
lfingers 7.12502
lthumb -0.242315 13.6214
rfemur -54.9494 -39.365 0.38341
rtibia 103.002
rfoot -34.4361 -7.89294
rtoes -34.3911
lfemur -85.6612 17.3636 -26.4673
ltibia 86.7962
lfoot -12.8553 -20.5324
ltoes 5.70017
594
root -2.33865 12.5987 -0.429371 183.059 62.3917 161.492
lowerback 49.8795 10.3509 -10.9166
upperback 10.2006 9.62059 -0.053459
thorax -9.47307 5.37053 0.483546
lowerneck -31.6837 -8.06721 -8.65346
upperneck 21.6294 -7.86967 2.73994
head 12.8596 -3.80121 0.879989
rclavicle 9.54166e-015 7.4743e-014
rhumerus 46.8309 10.8454 -64.8892
rradius 42.2535
rwrist -39.5615
rhand -12.7875 -42.8294
rfingers 7.12502
rthumb 13.298 -72.3852
lclavicle 9.54166e-015 7.4743e-014
lhumerus -14.7676 -26.9805 73.0669
lradius 59.007
lwrist 29.6775
lhand -27.0059 -16.0628
lfingers 7.12502
lthumb -0.425785 13.9165
rfemur -55.0986 -38.9272 0.853474
rtibia 102.826
rfoot -34.6773 -7.58887
rtoes -33.464
lfemur -85.207 17.8684 -26.1463
ltibia 86.2672
lfoot -12.6124 -20.3825
ltoes 5.48233
595
root -2.36747 12.6126 -0.36837 182.769 62.7078 161.714
lowerback 50.1176 10.2109 -10.7645
upperback 10.1316 9.49467 0.0504107
thorax -9.59032 5.30808 0.564548
lowerneck -31.4958 -8.31133 -8.97271
upperneck 21.4847 -8.21672 3.17869
head 12.8273 -3.92077 1.03259
rclavicle 4.6118e-014 3.49861e-014
rhumerus 46.2222 12.138 -63.5724
rradius 43.2622
rwrist -37.6943
rhand -13.2421 -42.4715
rfingers 7.12502
rthumb 12.8598 -72.0554
lclavicle 4.6118e-014 3.49861e-014
lhumerus -15.0897 -27.0034 73.0161
lradius 58.7948
lwrist 29.6993
lhand -26.9765 -16.1825
lfingers 7.12502
lthumb -0.397418 13.7969
rfemur -54.9364 -38.6964 1.25425
rtibia 102.679
rfoot -34.9716 -7.36306
rtoes -32.8562
lfemur -84.6062 18.2006 -25.5859
ltibia 85.802
lfoot -12.4105 -19.9201
ltoes 4.55836
596
root -2.40103 12.6251 -0.304495 182.381 62.9761 161.973
lowerback 50.4628 10.0345 -10.584
upperback 10.0783 9.34369 0.180376
thorax -9.70393 5.23721 0.667901
lowerneck -31.5 -8.41087 -8.87288
upperneck 21.5106 -8.37955 3.10511
head 12.8398 -3.99426 0.954037
rclavicle 8.90555e-014 -9.46215e-014
rhumerus 45.5757 13.3341 -62.5492
rradius 44.2142
rwrist -35.0884
rhand -13.8638 -41.7107
rfingers 7.12502
rthumb 12.2604 -71.3313
lclavicle 8.90555e-014 -9.46215e-014
lhumerus -15.342 -26.8392 73.1151
lradius 58.4022
lwrist 29.4501
lhand -27.0553 -16.384
lfingers 7.12502
lthumb -0.473468 13.5952
rfemur -54.666 -38.5174 1.65761
rtibia 102.483
rfoot -35.2219 -7.43951
rtoes -32.7667
lfemur -83.8827 18.4823 -24.9606
ltibia 85.3789
lfoot -12.2731 -19.6338
ltoes 3.74428
597
root -2.43452 12.6342 -0.251287 182.094 63.4476 162.012
lowerback 50.4212 9.8959 -10.5057
upperback 9.98548 9.18635 0.210739
thorax -9.80252 5.15671 0.734693
lowerneck -31.3883 -8.40624 -8.57897
upperneck 21.5399 -8.46114 2.90279
head 12.8111 -4.0361 0.816184
rclavicle -2.06736e-014 1.43125e-014
rhumerus 44.9104 14.4836 -61.832
rradius 44.9659
rwrist -31.4239
rhand -13.8992 -41.082
rfingers 7.12502
rthumb 12.2263 -70.7046
lclavicle -2.06736e-014 1.43125e-014
lhumerus -15.7369 -26.6343 73.2764
lradius 58.0858
lwrist 29.3196
lhand -27.1133 -16.3759
lfingers 7.12502
lthumb -0.529532 13.6032
rfemur -54.9241 -38.2691 2.23374
rtibia 102.355
rfoot -35.5529 -7.45476
rtoes -32.4827
lfemur -83.5212 18.8636 -24.5715
ltibia 85.0007
lfoot -12.1054 -19.4302
ltoes 3.20167
598
root -2.47609 12.6278 -0.174753 180.982 63.4075 161.76
lowerback 51.0681 9.60923 -10.3558
upperback 9.92492 8.88378 0.309682
thorax -9.9417 5.03316 0.869365
lowerneck -31.4183 -8.37748 -8.39415
upperneck 21.7645 -8.47944 2.79842
head 12.8935 -4.04242 0.740218
rclavicle 6.99722e-014 3.18055e-014
rhumerus 44.4451 15.686 -60.9571
rradius 45.3653
rwrist -27.5304
rhand -12.8175 -40.7163
rfingers 7.12502
rthumb 13.2691 -70.274
lclavicle 6.99722e-014 3.18055e-014
lhumerus -16.0455 -26.4279 73.3694
lradius 57.6876
lwrist 29.2731
lhand -26.948 -16.5617
lfingers 7.12502
lthumb -0.369846 13.4178
rfemur -54.0726 -38.7242 1.97017
rtibia 102.286
rfoot -36.0688 -7.07249
rtoes -31.8739
lfemur -82.5133 18.7252 -24.0797
ltibia 84.6884
lfoot -12.0256 -19.0514
ltoes 2.39874
599
root -2.49044 12.6333 -0.17516 180.537 64.2737 161.429
lowerback 50.5037 9.33541 -10.0689
upperback 9.99582 8.70608 0.0700332
thorax -9.74486 4.95033 0.61597
lowerneck -31.638 -8.33608 -8.20247
upperneck 22.0554 -8.42747 2.57769
head 13.0262 -4.03068 0.626438
rclavicle -9.38264e-014 5.24792e-014
rhumerus 44.1621 16.9755 -59.7987
rradius 45.6033
rwrist -24.4468
rhand -15.5016 -38.8459
rfingers 7.12502
rthumb 10.681 -68.5544
lclavicle -9.38264e-014 5.24792e-014
lhumerus -16.2056 -26.2257 73.3485
lradius 57.1899
lwrist 29.1318
lhand -26.7534 -16.7517
lfingers 7.12502
lthumb -0.181901 13.228
rfemur -54.7984 -38.2718 2.66037
rtibia 102.162
rfoot -36.2621 -7.44871
rtoes -31.5692
lfemur -82.2826 19.4037 -23.7655
ltibia 84.5328
lfoot -11.9881 -18.8923
ltoes 2.43052
600
root -2.49724 12.6407 -0.166718 180.583 64.8529 161.252
lowerback 49.6099 8.91524 -9.6514
upperback 10.0234 8.43136 -0.146449
thorax -9.55372 4.81514 0.391904
lowerneck -31.6482 -8.23269 -7.83967
upperneck 22.1053 -8.33759 2.20709
head 13.0049 -4.01354 0.444792
rclavicle -6.36111e-015 -1.00983e-013
rhumerus 43.9635 18.1225 -58.7543
rradius 45.7046
rwrist -22.2395
rhand -15.3066 -38.498
rfingers 7.12502
rthumb 10.869 -68.1967
lclavicle -6.36111e-015 -1.00983e-013
lhumerus -16.3791 -26.0387 73.3274
lradius 56.7357
lwrist 29.1387
lhand -26.6861 -16.6154
lfingers 7.12502
lthumb -0.116898 13.3644
rfemur -55.9185 -38.0861 3.62959
rtibia 102.041
rfoot -36.3401 -7.79794
rtoes -30.8498
lfemur -82.4897 19.7648 -23.4579
ltibia 84.4135
lfoot -11.7882 -18.8299
ltoes 3.02767
601
root -2.48644 12.6601 -0.164572 181.648 65.7988 161.365
lowerback 47.8564 8.69519 -9.40563
upperback 10.0036 8.32742 -0.34294
thorax -9.30348 4.72752 0.240138
lowerneck -31.5901 -8.00825 -7.181
upperneck 22.122 -8.10624 1.472
head 12.9188 -3.96249 0.108733
rclavicle -1.59028e-014 -8.26944e-014
rhumerus 43.9697 19.0115 -57.8224
rradius 45.5632
rwrist -21.1242
rhand -15.4044 -38.4242
rfingers 7.12502
rthumb 10.7747 -68.1279
lclavicle -1.59028e-014 -8.26944e-014
lhumerus -16.5278 -25.8332 73.4168
lradius 56.266
lwrist 29.259
lhand -26.6993 -16.6121
lfingers 7.12502
lthumb -0.129654 13.3676
rfemur -58.0579 -37.5358 5.29799
rtibia 101.814
rfoot -36.3105 -8.04908
rtoes -30.1468
lfemur -83.4765 20.348 -23.2701
ltibia 84.3904
lfoot -11.9877 -18.4285
ltoes 2.51452
602
root -2.48123 12.6709 -0.148573 181.896 66.6655 161.313
lowerback 46.858 8.61646 -9.24615
upperback 9.96051 8.31934 -0.42802
thorax -9.18727 4.69622 0.150196
lowerneck -31.5282 -7.71845 -6.50462
upperneck 22.2857 -7.73812 0.57299
head 12.8829 -3.87179 -0.26771
rclavicle 3.97569e-014 -3.18055e-015
rhumerus 43.8837 19.5132 -57.3524
rradius 45.2657
rwrist -20.4055
rhand -15.3624 -38.486
rfingers 7.12502
rthumb 10.8152 -68.1875
lclavicle 3.97569e-014 -3.18055e-015
lhumerus -16.7691 -25.6635 73.6899
lradius 55.9011
lwrist 29.1847
lhand -26.8547 -16.113
lfingers 7.12502
lthumb -0.279728 13.8666
rfemur -59.049 -36.9537 6.24389
rtibia 101.528
rfoot -36.3919 -8.45552
rtoes -30.3121
lfemur -83.6307 20.9328 -23.0467
ltibia 84.2532
lfoot -12.3151 -18.0841
ltoes 1.86881
